<?xml version="1.0"?>
<svg xmlns="http://www.w3.org/2000/svg" viewBox="0 0 64 64" width="512" height="512"><g id="package-delivery-food-restaurant"><path d="M57.98,39.18,59.83,29H61a1,1,0,0,0,1-1V24a1,1,0,0,0-1-1H58.75l-1.79-6.27A1,1,0,0,0,56,16H48V5a3.009,3.009,0,0,0-3-3H19a3.009,3.009,0,0,0-3,3V16H8a1,1,0,0,0-.96.73L5.25,23H3a1,1,0,0,0-1,1v4a1,1,0,0,0,1,1H4.17L6.02,39.18a.967.967,0,0,0,.67.76L5.25,45H3a1,1,0,0,0-1,1v4a1,1,0,0,0,1,1H4.17L6.02,61.18A1,1,0,0,0,7,62H57a1,1,0,0,0,.98-.82L59.83,51H61a1,1,0,0,0,1-1V46a1,1,0,0,0-1-1H58.75l-1.44-5.06A.967.967,0,0,0,57.98,39.18ZM51,18h4.25l1.42,5H51Zm0,7h9v2H51Zm0,15h4.25l1.42,5H51ZM18,5a1,1,0,0,1,1-1H45a1,1,0,0,1,1,1V16H42V10a3.009,3.009,0,0,0-3-3H25a3.009,3.009,0,0,0-3,3v6H18Zm22,5v6H24V10a1,1,0,0,1,1-1H39A1,1,0,0,1,40,10ZM13,60H7.83L6.2,51H13Zm0-11H4V47h9Zm0-4H7.33l1.42-5H13Zm0-7H7.83L6.2,29H13Zm0-11H4V25h9Zm0-4H7.33l1.42-5H13ZM49,60H15V47.43a18.956,18.956,0,0,0,34,0ZM32,56A17,17,0,1,1,49,39,17.024,17.024,0,0,1,32,56ZM49,30.57a18.956,18.956,0,0,0-34,0V18H49ZM56.17,60H51V51h6.8ZM60,47v2H51V47Zm-3.83-9H51V29h6.8Z"/><path d="M28,29v4H27V29H25v4H24V29H22v8a4,4,0,0,0,1.86,3.37L23,49.91A1.01,1.01,0,0,0,24,51h4a1.01,1.01,0,0,0,1-1.09l-.86-9.54A4,4,0,0,0,30,37V29ZM25.09,49l.73-8.02c.06,0,.12.02.18.02s.12-.02.18-.02L26.91,49ZM28,37a2,2,0,0,1-4,0V35h4Z"/><path d="M41,29a7.009,7.009,0,0,0-7,7v4a1,1,0,0,0,.684.948l2.233.745-.911,8.2A1,1,0,0,0,37,51h4a1,1,0,0,0,1-1V30A1,1,0,0,0,41,29ZM38.117,49l.74-6.66L40,42.72V49ZM40,40.612l-4-1.333V36a5.008,5.008,0,0,1,4-4.9v9.511Z"/></g></svg>
